<svg width="128" height="128" viewBox="0 0 128 128" fill="none" xmlns="http://www.w3.org/2000/svg">
    <path fill-rule="evenodd" clip-rule="evenodd" d="M55.0382 32.9247C53.8014 30.5194 51.2737 29 48.508 29C45.7425 29 43.2144 30.5194 41.9777 32.9247L12.7725 89.7236C10.9691 93.231 12.4309 97.4951 16.0376 99.2488C19.6443 101.002 24.0301 99.5811 25.8333 96.0738L31.1167 85.7988H65.8997L71.1829 96.0738C72.9863 99.5811 77.3714 101.002 80.9783 99.2488C84.5851 97.4951 86.0469 93.231 84.2434 89.7236L55.0382 32.9247ZM58.5984 71.5991L48.508 51.9751L38.418 71.5991H58.5984Z" fill="#416DF1"/>
    <path fill-rule="evenodd" clip-rule="evenodd" d="M107.821 29C111.853 29 115.122 32.1787 115.122 36.0999V92.8987C115.122 96.8192 111.853 99.9986 107.821 99.9986C103.789 99.9986 100.519 96.8192 100.519 92.8987V36.0999C100.519 32.1787 103.789 29 107.821 29Z" fill="#416DF1"/>
</svg>
